<svg width="149" height="11" viewBox="0 0 149 11" fill="none" xmlns="http://www.w3.org/2000/svg">
<g clip-path="url(#clip0_279_145)">
<path d="M26.1191 0.185989H24.3401C24.2441 0.185989 24.1541 0.218989 24.0791 0.275989L18.7931 4.41299C18.6521 4.52099 18.4481 4.42199 18.4481 4.24499V0.611989C18.4481 0.377989 18.2591 0.185989 18.0221 0.185989H16.4261C16.1921 0.185989 16.0001 0.374989 16.0001 0.611989V9.83999C16.0001 10.074 16.1891 10.266 16.4261 10.266H18.0251C18.2591 10.266 18.4511 10.077 18.4511 9.83999V7.29599C18.4511 7.22999 18.4811 7.16999 18.5321 7.12799L20.3321 5.70899C20.4221 5.63699 20.5541 5.65199 20.6291 5.74199L24.2291 10.11C24.3101 10.209 24.4301 10.266 24.5561 10.266H26.4221C26.7851 10.266 26.9801 9.84299 26.7461 9.56699L22.3751 4.38299C22.2971 4.28999 22.3121 4.15199 22.4051 4.07999L26.3861 0.94499C26.7041 0.695989 26.5271 0.185989 26.1221 0.185989H26.1191Z" fill="#240B0B"/>
<path d="M30.0641 9.84301V0.612005C30.0641 0.378005 30.2531 0.186005 30.4901 0.186005H32.0891C32.3231 0.186005 32.5151 0.375005 32.5151 0.612005V9.84C32.5151 10.074 32.3261 10.266 32.0891 10.266H30.4901C30.2561 10.266 30.0641 10.077 30.0641 9.84V9.84301Z" fill="#240B0B"/>
<path d="M36.682 9.84301V0.612005C36.682 0.378005 36.871 0.186005 37.108 0.186005H38.842C38.953 0.186005 39.061 0.231005 39.142 0.309005L45.337 6.42C45.472 6.552 45.7 6.456 45.7 6.27V0.612005C45.7 0.378005 45.889 0.186005 46.126 0.186005H47.653C47.887 0.186005 48.079 0.375005 48.079 0.612005V9.84C48.079 10.074 47.89 10.266 47.653 10.266H45.892C45.781 10.266 45.673 10.221 45.592 10.143L39.424 4.05601C39.289 3.92401 39.061 4.02 39.061 4.20601V9.84C39.061 10.074 38.872 10.266 38.635 10.266H37.108C36.874 10.266 36.682 10.077 36.682 9.84V9.84301Z" fill="#240B0B"/>
<path d="M73.747 1.92299V0.611989C73.747 0.377989 73.558 0.185989 73.321 0.185989H65.503C65.269 0.185989 65.077 0.374989 65.077 0.611989V9.83999C65.077 10.074 65.266 10.266 65.503 10.266H67.102C67.336 10.266 67.528 10.077 67.528 9.83999V8.72699C67.528 8.63099 67.594 8.54699 67.687 8.52299L72.586 7.21199C72.772 7.16099 72.901 6.99299 72.901 6.80099V5.56499C72.901 5.28599 72.637 5.08199 72.367 5.15399L67.798 6.37799C67.663 6.41399 67.531 6.31199 67.531 6.17399V2.56199C67.531 2.44499 67.627 2.34899 67.744 2.34899H73.327C73.561 2.34899 73.753 2.15999 73.753 1.92299H73.747Z" fill="#240B0B"/>
<path d="M102.079 9.58499L100.264 7.18499C100.189 7.08299 100.219 6.94199 100.324 6.87599C101.341 6.21899 101.989 5.08199 101.989 3.82199C101.989 1.81499 100.363 0.188988 98.3561 0.188988H92.7671C92.5331 0.188988 92.3411 0.377988 92.3411 0.614988V9.84299C92.3411 10.077 92.5301 10.269 92.7671 10.269H94.2491C94.4831 10.269 94.6751 10.08 94.6751 9.84299V8.72999C94.6751 8.63399 94.7411 8.54999 94.8341 8.52599L97.6901 7.76399C97.7741 7.74299 97.8641 7.77299 97.9151 7.84199L99.6161 10.101C99.6971 10.209 99.8231 10.269 99.9551 10.269H101.74C102.091 10.269 102.292 9.86699 102.079 9.58799V9.58499ZM94.6751 2.44499C94.6751 2.32799 94.7711 2.23199 94.8881 2.23199H97.7681C98.7311 2.23199 99.5141 3.01199 99.5141 3.97799C99.5141 4.76699 98.9831 5.45999 98.2211 5.66399L94.9421 6.54299C94.8071 6.57899 94.6751 6.47699 94.6751 6.33899V2.44799V2.44499Z" fill="#240B0B"/>
<path d="M130.561 10.266H132.148C132.463 10.266 132.67 9.93599 132.529 9.65099L127.966 0.422989C127.894 0.278989 127.747 0.185989 127.585 0.185989H125.809C125.647 0.185989 125.5 0.275989 125.428 0.422989L120.841 9.65099C120.7 9.93299 120.907 10.266 121.222 10.266H122.749C122.911 10.266 123.058 10.176 123.13 10.029L123.817 8.64899C123.844 8.59499 123.892 8.55299 123.952 8.53799L128.623 7.28699C128.722 7.25999 128.824 7.30799 128.869 7.39799L130.183 10.029C130.255 10.173 130.402 10.263 130.564 10.263L130.561 10.266ZM125.155 5.94899L126.463 3.22199C126.541 3.05999 126.772 3.05999 126.847 3.22199L127.843 5.33099C127.9 5.45099 127.834 5.59199 127.705 5.62799L125.401 6.24599C125.227 6.29399 125.077 6.11099 125.155 5.94899Z" fill="#240B0B"/>
<path d="M82.684 10.455C81.733 10.455 80.869 10.323 80.092 10.059C79.315 9.79499 78.643 9.42599 78.076 8.94899C77.509 8.47499 77.071 7.91999 76.759 7.28699C76.447 6.65399 76.291 5.96699 76.291 5.22899C76.291 4.49099 76.447 3.80399 76.759 3.17099C77.071 2.53799 77.512 1.98299 78.085 1.50899C78.655 1.03499 79.327 0.662991 80.101 0.398991C80.875 0.134991 81.73 0.00299072 82.672 0.00299072C83.614 0.00299072 84.457 0.134991 85.234 0.398991C86.011 0.662991 86.683 1.03199 87.25 1.50899C87.817 1.98299 88.255 2.53799 88.567 3.17099C88.879 3.80399 89.035 4.49099 89.035 5.22899C89.035 5.96699 88.879 6.65399 88.567 7.28699C88.255 7.91999 87.817 8.47499 87.25 8.94899C86.683 9.42299 86.011 9.79499 85.234 10.059C84.457 10.323 83.608 10.455 82.684 10.455ZM82.669 8.15099C83.236 8.15099 83.755 8.07599 84.232 7.92899C84.706 7.77899 85.117 7.57499 85.462 7.31099C85.807 7.04699 86.074 6.73799 86.26 6.38099C86.446 6.02399 86.542 5.64299 86.542 5.22899C86.542 4.81499 86.449 4.43099 86.26 4.07699C86.074 3.72299 85.807 3.41399 85.462 3.14699C85.117 2.88299 84.706 2.67599 84.232 2.52899C83.758 2.37899 83.236 2.30699 82.669 2.30699C82.102 2.30699 81.583 2.38199 81.106 2.52899C80.632 2.67899 80.218 2.88299 79.867 3.14699C79.516 3.41099 79.249 3.71999 79.069 4.07699C78.886 4.43099 78.796 4.81499 78.796 5.22899C78.796 5.64299 78.886 6.02699 79.069 6.38099C79.252 6.73499 79.519 7.04699 79.867 7.31099C80.218 7.57499 80.629 7.78199 81.106 7.92899C81.58 8.07899 82.102 8.15099 82.669 8.15099Z" fill="#240B0B"/>
<path d="M115.783 0.344989L112.174 4.81499C112.09 4.91999 111.928 4.91999 111.844 4.81499L108.235 0.344989C108.154 0.245989 108.034 0.185989 107.905 0.185989H106.345C106.111 0.185989 105.919 0.374989 105.919 0.611989V9.83999C105.919 10.074 106.108 10.266 106.345 10.266H107.872C108.106 10.266 108.298 10.077 108.298 9.83999V4.60199C108.298 4.40399 108.544 4.31399 108.673 4.46399L111.412 7.66799C111.493 7.76399 111.61 7.81799 111.736 7.81799H112.294C112.42 7.81799 112.537 7.76399 112.618 7.66799L115.357 4.44599C115.486 4.29599 115.732 4.38599 115.732 4.58399V9.83999C115.732 10.074 115.921 10.266 116.158 10.266H117.685C117.919 10.266 118.111 10.077 118.111 9.83999V0.611989C118.111 0.377989 117.922 0.185989 117.685 0.185989H116.125C115.996 0.185989 115.876 0.242989 115.795 0.344989H115.783Z" fill="#240B0B"/>
</g>
<defs>
<clipPath id="clip0_279_145">
<rect width="116.574" height="10.455" fill="white" transform="translate(16)"/>
</clipPath>
</defs>
</svg>
