<svg width="117" height="213" viewBox="0 0 117 213" fill="none" xmlns="http://www.w3.org/2000/svg">
<g clip-path="url(#clip0_596_2314)">
<path d="M111.683 58.4625C111.683 63.8925 110.865 69.255 109.253 74.4C109.237 74.4375 109.23 74.4825 109.215 74.52L81.1725 162.893C80.94 163.493 80.8275 164.13 80.8275 164.76C80.8275 165.667 81.06 166.575 81.5325 167.393C83.865 171.428 85.1025 176.033 85.1025 180.705C85.1025 195.398 73.155 207.345 58.4625 207.345C43.77 207.345 31.8225 195.398 31.8225 180.705C31.8225 176.033 33.06 171.428 35.3925 167.393C35.865 166.583 36.0975 165.675 36.0975 164.768C36.0975 164.16 35.9925 163.553 35.7825 162.975L7.725 74.5425C7.71 74.49 7.695 74.445 7.68 74.3925C6.0675 69.255 5.25 63.8925 5.25 58.455C5.25 29.1225 29.1225 5.25 58.4625 5.25C87.8025 5.25 111.675 29.1225 111.675 58.4625M116.933 58.4625C116.933 26.175 90.75 0 58.4625 0C26.175 0 0 26.175 0 58.4625C0 64.56 0.9375 70.44 2.67 75.9675L30.8475 164.76H30.855C28.14 169.455 26.58 174.893 26.58 180.705C26.58 198.315 40.86 212.595 58.47 212.595C76.08 212.595 90.36 198.315 90.36 180.705C90.36 174.893 88.8 169.455 86.085 164.76H86.0925L114.27 75.9675C116.003 70.44 116.94 64.56 116.94 58.4625H116.933Z" fill="#CA0E0E"/>
<path d="M43.6727 45.8625H39.2252C38.9852 45.8625 38.7602 45.945 38.5727 46.0875L25.3577 56.4225C25.0052 56.6925 24.4952 56.445 24.4952 56.0025V46.92C24.4952 46.335 24.0227 45.855 23.4302 45.855H19.4327C18.8477 45.855 18.3677 46.3275 18.3677 46.92V69.99C18.3677 70.575 18.8402 71.055 19.4327 71.055H23.4302C24.0152 71.055 24.4952 70.5825 24.4952 69.99V63.63C24.4952 63.465 24.5702 63.315 24.6977 63.21L29.1977 59.6625C29.4227 59.4825 29.7527 59.52 29.9402 59.745L38.9402 70.665C39.1427 70.9125 39.4427 71.055 39.7577 71.055H44.4227C45.3302 71.055 45.8177 69.9975 45.2327 69.3075L34.3052 56.3475C34.1102 56.115 34.1477 55.77 34.3802 55.59L44.3327 47.7525C45.1277 47.13 44.6852 45.855 43.6727 45.855V45.8625Z" fill="#CA0E0E"/>
<path d="M53.5352 70.0051V46.9351C53.5352 46.3501 54.0077 45.8701 54.6002 45.8701H58.5977C59.1827 45.8701 59.6627 46.3426 59.6627 46.9351V70.0051C59.6627 70.5901 59.1902 71.0701 58.5977 71.0701H54.6002C54.0152 71.0701 53.5352 70.5976 53.5352 70.0051Z" fill="#CA0E0E"/>
<path d="M70.0801 70.0051V46.9351C70.0801 46.3501 70.5526 45.8701 71.1451 45.8701H75.4801C75.7576 45.8701 76.0276 45.9826 76.2301 46.1776L91.7176 61.4551C92.0551 61.7851 92.6251 61.5451 92.6251 61.0801V46.9426C92.6251 46.3576 93.0976 45.8776 93.6901 45.8776H97.5076C98.0926 45.8776 98.5726 46.3501 98.5726 46.9426V70.0126C98.5726 70.5976 98.1001 71.0776 97.5076 71.0776H93.1051C92.8276 71.0776 92.5576 70.9651 92.3551 70.7701L76.9351 55.5526C76.5976 55.2226 76.0276 55.4626 76.0276 55.9276V70.0126C76.0276 70.5976 75.5551 71.0776 74.9626 71.0776H71.1451C70.5601 71.0776 70.0801 70.6051 70.0801 70.0126V70.0051Z" fill="#CA0E0E"/>
</g>
<defs>
<clipPath id="clip0_596_2314">
<rect width="116.933" height="212.595" fill="white"/>
</clipPath>
</defs>
</svg>
