<svg width="213" height="117" viewBox="0 0 213 117" fill="none" xmlns="http://www.w3.org/2000/svg">
<g clip-path="url(#clip0_596_2322)">
<path d="M58.4625 5.25C63.8925 5.25 69.255 6.0675 74.4 7.68C74.4375 7.695 74.4825 7.7025 74.52 7.7175L162.893 35.76C163.493 35.9925 164.13 36.105 164.76 36.105C165.667 36.105 166.575 35.8725 167.393 35.4C171.428 33.0675 176.033 31.83 180.705 31.83C195.398 31.83 207.345 43.7775 207.345 58.47C207.345 73.1625 195.398 85.11 180.705 85.11C176.033 85.11 171.428 83.8725 167.393 81.54C166.583 81.0675 165.675 80.835 164.768 80.835C164.16 80.835 163.553 80.94 162.975 81.15L74.5425 109.215C74.49 109.23 74.445 109.245 74.3925 109.26C69.255 110.872 63.8925 111.69 58.455 111.69C29.115 111.69 5.2425 87.8175 5.2425 58.4775C5.2425 29.1375 29.1225 5.25 58.4625 5.25ZM58.4625 0C26.175 0 0 26.175 0 58.4625C0 90.75 26.175 116.925 58.4625 116.925C64.56 116.925 70.44 115.987 75.9675 114.255L164.76 86.0775C169.455 88.785 174.893 90.345 180.705 90.345C198.315 90.345 212.595 76.065 212.595 58.455C212.595 40.845 198.315 26.565 180.705 26.565C174.893 26.565 169.455 28.125 164.76 30.84L75.9675 2.67C70.44 0.9375 64.56 0 58.4625 0Z" fill="#CA0E0E"/>
<path d="M43.6047 50.1975V46.9275C43.6047 46.3425 43.1322 45.8625 42.5397 45.8625H22.9947C22.4097 45.8625 21.9297 46.335 21.9297 46.9275V69.9975C21.9297 70.5825 22.4022 71.0625 22.9947 71.0625H26.9922C27.5772 71.0625 28.0572 70.59 28.0572 69.9975V67.215C28.0572 66.975 28.2222 66.765 28.4547 66.705L40.7022 63.4275C41.1672 63.3 41.4897 62.88 41.4897 62.4V59.31C41.4897 58.6125 40.8297 58.1025 40.1547 58.2825L28.7322 61.3425C28.3947 61.4325 28.0647 61.1775 28.0647 60.8325V51.8025C28.0647 51.51 28.3047 51.27 28.5972 51.27H42.5547C43.1397 51.27 43.6197 50.7975 43.6197 50.205L43.6047 50.1975Z" fill="#CA0E0E"/>
<path d="M114.435 69.36L109.897 63.36C109.71 63.105 109.785 62.7525 110.047 62.5875C112.59 60.945 114.21 58.1025 114.21 54.9525C114.21 49.935 110.145 45.87 105.127 45.87H91.1548C90.5698 45.87 90.0898 46.3425 90.0898 46.935V70.005C90.0898 70.59 90.5623 71.07 91.1548 71.07H94.8598C95.4448 71.07 95.9248 70.5975 95.9248 70.005V67.2225C95.9248 66.9825 96.0898 66.7725 96.3223 66.7125L103.462 64.8075C103.672 64.755 103.897 64.83 104.025 65.0025L108.277 70.65C108.48 70.92 108.795 71.07 109.125 71.07H113.587C114.465 71.07 114.967 70.065 114.435 69.3675V69.36ZM95.9248 51.51C95.9248 51.2175 96.1648 50.9775 96.4573 50.9775H103.657C106.065 50.9775 108.022 52.9275 108.022 55.3425C108.022 57.315 106.695 59.0475 104.79 59.5575L96.5923 61.755C96.2548 61.845 95.9248 61.59 95.9248 61.245V51.5175V51.51Z" fill="#CA0E0E"/>
<path d="M185.632 71.0625H189.6C190.387 71.0625 190.905 70.2375 190.552 69.525L179.145 46.455C178.965 46.095 178.597 45.8625 178.192 45.8625H173.752C173.347 45.8625 172.98 46.0875 172.8 46.455L161.332 69.525C160.98 70.23 161.497 71.0625 162.285 71.0625H166.102C166.507 71.0625 166.875 70.8375 167.055 70.47L168.772 67.02C168.84 66.885 168.96 66.78 169.11 66.7425L180.787 63.615C181.035 63.5475 181.29 63.6675 181.402 63.8925L184.687 70.47C184.867 70.83 185.235 71.055 185.64 71.055L185.632 71.0625ZM172.117 60.2625L175.387 53.445C175.582 53.04 176.16 53.04 176.347 53.445L178.837 58.7175C178.98 59.0175 178.815 59.37 178.492 59.46L172.732 61.005C172.297 61.125 171.922 60.6675 172.117 60.2625Z" fill="#CA0E0E"/>
<path d="M65.9395 71.535C63.562 71.535 61.402 71.205 59.4595 70.545C57.517 69.885 55.837 68.9625 54.4195 67.77C53.002 66.585 51.907 65.1975 51.127 63.615C50.347 62.0325 49.957 60.315 49.957 58.47C49.957 56.625 50.347 54.9075 51.127 53.325C51.907 51.7425 53.0095 50.355 54.442 49.17C55.867 47.985 57.547 47.055 59.482 46.395C61.417 45.735 63.5545 45.405 65.9095 45.405C68.2645 45.405 70.372 45.735 72.3145 46.395C74.257 47.055 75.937 47.9775 77.3545 49.17C78.772 50.355 79.867 51.7425 80.647 53.325C81.427 54.9075 81.817 56.625 81.817 58.47C81.817 60.315 81.427 62.0325 80.647 63.615C79.867 65.1975 78.772 66.585 77.3545 67.77C75.937 68.955 74.257 69.885 72.3145 70.545C70.372 71.205 68.2495 71.535 65.9395 71.535ZM65.9095 65.775C67.327 65.775 68.6245 65.5875 69.817 65.22C71.002 64.845 72.0295 64.335 72.892 63.675C73.7545 63.015 74.422 62.2425 74.887 61.35C75.352 60.4575 75.592 59.505 75.592 58.47C75.592 57.435 75.3595 56.475 74.887 55.59C74.422 54.705 73.7545 53.9325 72.892 53.265C72.0295 52.605 71.002 52.0875 69.817 51.72C68.632 51.345 67.327 51.165 65.9095 51.165C64.492 51.165 63.1945 51.3525 62.002 51.72C60.817 52.095 59.782 52.605 58.9045 53.265C58.027 53.925 57.3595 54.6975 56.9095 55.59C56.452 56.475 56.227 57.435 56.227 58.47C56.227 59.505 56.452 60.465 56.9095 61.35C57.367 62.235 58.0345 63.015 58.9045 63.675C59.782 64.335 60.8095 64.8525 62.002 65.22C63.187 65.595 64.492 65.775 65.9095 65.775Z" fill="#CA0E0E"/>
<path d="M148.695 46.26L139.673 57.435C139.463 57.6975 139.058 57.6975 138.848 57.435L129.825 46.26C129.623 46.0125 129.323 45.8625 129 45.8625H125.1C124.515 45.8625 124.035 46.335 124.035 46.9275V69.9975C124.035 70.5825 124.508 71.0625 125.1 71.0625H128.918C129.503 71.0625 129.983 70.59 129.983 69.9975V56.9025C129.983 56.4075 130.598 56.1825 130.92 56.5575L137.768 64.5675C137.97 64.8075 138.263 64.9425 138.578 64.9425H139.973C140.288 64.9425 140.58 64.8075 140.783 64.5675L147.63 56.5125C147.953 56.1375 148.568 56.3625 148.568 56.8575V69.9975C148.568 70.5825 149.04 71.0625 149.633 71.0625H153.45C154.035 71.0625 154.515 70.59 154.515 69.9975V46.9275C154.515 46.3425 154.043 45.8625 153.45 45.8625H149.55C149.228 45.8625 148.928 46.005 148.725 46.26H148.695Z" fill="#CA0E0E"/>
</g>
<defs>
<clipPath id="clip0_596_2322">
<rect width="212.595" height="116.933" fill="white"/>
</clipPath>
</defs>
</svg>
