<svg width="185" height="20" viewBox="0 0 185 20" fill="none" xmlns="http://www.w3.org/2000/svg">
<g clip-path="url(#clip0_1492_893)">
<path d="M42.119 4.95847H40.34C40.244 4.95847 40.154 4.99147 40.079 5.04847L34.793 9.18547C34.652 9.29347 34.448 9.19447 34.448 9.01747V5.38447C34.448 5.15047 34.259 4.95847 34.022 4.95847H32.426C32.192 4.95847 32 5.14747 32 5.38447V14.6125C32 14.8465 32.189 15.0385 32.426 15.0385H34.025C34.259 15.0385 34.451 14.8495 34.451 14.6125V12.0685C34.451 12.0025 34.481 11.9425 34.532 11.9005L36.332 10.4815C36.422 10.4095 36.554 10.4245 36.629 10.5145L40.229 14.8825C40.31 14.9815 40.43 15.0385 40.556 15.0385H42.422C42.785 15.0385 42.98 14.6155 42.746 14.3395L38.375 9.15547C38.297 9.06247 38.312 8.92447 38.405 8.85247L42.386 5.71747C42.704 5.46847 42.527 4.95847 42.122 4.95847H42.119Z" fill="#1D1D1B"/>
<path d="M46.0639 14.6155V5.38447C46.0639 5.15047 46.2529 4.95847 46.4899 4.95847H48.0889C48.3229 4.95847 48.5149 5.14747 48.5149 5.38447V14.6125C48.5149 14.8465 48.3259 15.0385 48.0889 15.0385H46.4899C46.2559 15.0385 46.0639 14.8495 46.0639 14.6125V14.6155Z" fill="#1D1D1B"/>
<path d="M52.6819 14.6155V5.38447C52.6819 5.15047 52.8709 4.95847 53.1079 4.95847H54.8419C54.9529 4.95847 55.0609 5.00347 55.1419 5.08147L61.3369 11.1925C61.4719 11.3245 61.6999 11.2285 61.6999 11.0425V5.38447C61.6999 5.15047 61.8889 4.95847 62.1259 4.95847H63.6529C63.8869 4.95847 64.0789 5.14747 64.0789 5.38447V14.6125C64.0789 14.8465 63.8899 15.0385 63.6529 15.0385H61.8919C61.7809 15.0385 61.6729 14.9935 61.5919 14.9155L55.4239 8.82847C55.2889 8.69647 55.0609 8.79247 55.0609 8.97847V14.6125C55.0609 14.8465 54.8719 15.0385 54.6349 15.0385H53.1079C52.8739 15.0385 52.6819 14.8495 52.6819 14.6125V14.6155Z" fill="#1D1D1B"/>
<path d="M89.747 6.69547V5.38447C89.747 5.15047 89.558 4.95847 89.321 4.95847H81.503C81.269 4.95847 81.077 5.14747 81.077 5.38447V14.6125C81.077 14.8465 81.266 15.0385 81.503 15.0385H83.102C83.336 15.0385 83.528 14.8495 83.528 14.6125V13.4995C83.528 13.4035 83.594 13.3195 83.687 13.2955L88.586 11.9845C88.772 11.9335 88.901 11.7655 88.901 11.5735V10.3375C88.901 10.0585 88.637 9.85447 88.367 9.92647L83.798 11.1505C83.663 11.1865 83.531 11.0845 83.531 10.9465V7.33447C83.531 7.21747 83.627 7.12147 83.744 7.12147H89.327C89.561 7.12147 89.753 6.93247 89.753 6.69547H89.747Z" fill="#1D1D1B"/>
<path d="M118.079 14.3575L116.264 11.9575C116.189 11.8555 116.219 11.7145 116.324 11.6485C117.341 10.9915 117.989 9.85449 117.989 8.59449C117.989 6.58749 116.363 4.96149 114.356 4.96149H108.767C108.533 4.96149 108.341 5.15049 108.341 5.38749V14.6155C108.341 14.8495 108.53 15.0415 108.767 15.0415H110.249C110.483 15.0415 110.675 14.8525 110.675 14.6155V13.5025C110.675 13.4065 110.741 13.3225 110.834 13.2985L113.69 12.5365C113.774 12.5155 113.864 12.5455 113.915 12.6145L115.616 14.8735C115.697 14.9815 115.823 15.0415 115.955 15.0415H117.74C118.091 15.0415 118.292 14.6395 118.079 14.3605V14.3575ZM110.675 7.21749C110.675 7.10049 110.771 7.00449 110.888 7.00449H113.768C114.731 7.00449 115.514 7.78449 115.514 8.75049C115.514 9.53949 114.983 10.2325 114.221 10.4365L110.942 11.3155C110.807 11.3515 110.675 11.2495 110.675 11.1115V7.22049V7.21749Z" fill="#1D1D1B"/>
<path d="M146.561 15.0385H148.148C148.463 15.0385 148.67 14.7085 148.529 14.4235L143.966 5.19547C143.894 5.05147 143.747 4.95847 143.585 4.95847H141.809C141.647 4.95847 141.5 5.04847 141.428 5.19547L136.841 14.4235C136.7 14.7055 136.907 15.0385 137.222 15.0385H138.749C138.911 15.0385 139.058 14.9485 139.13 14.8015L139.817 13.4215C139.844 13.3675 139.892 13.3255 139.952 13.3105L144.623 12.0595C144.722 12.0325 144.824 12.0805 144.869 12.1705L146.183 14.8015C146.255 14.9455 146.402 15.0355 146.564 15.0355L146.561 15.0385ZM141.155 10.7215L142.463 7.99447C142.541 7.83247 142.772 7.83247 142.847 7.99447L143.843 10.1035C143.9 10.2235 143.834 10.3645 143.705 10.4005L141.401 11.0185C141.227 11.0665 141.077 10.8835 141.155 10.7215Z" fill="#1D1D1B"/>
<path d="M98.684 15.2275C97.733 15.2275 96.869 15.0955 96.092 14.8315C95.315 14.5675 94.643 14.1985 94.076 13.7215C93.509 13.2475 93.071 12.6925 92.759 12.0595C92.447 11.4265 92.291 10.7395 92.291 10.0015C92.291 9.26348 92.447 8.57648 92.759 7.94348C93.071 7.31048 93.512 6.75548 94.085 6.28148C94.655 5.80748 95.327 5.43548 96.101 5.17148C96.875 4.90748 97.73 4.77548 98.672 4.77548C99.614 4.77548 100.457 4.90748 101.234 5.17148C102.011 5.43548 102.683 5.80448 103.25 6.28148C103.817 6.75548 104.255 7.31048 104.567 7.94348C104.879 8.57648 105.035 9.26348 105.035 10.0015C105.035 10.7395 104.879 11.4265 104.567 12.0595C104.255 12.6925 103.817 13.2475 103.25 13.7215C102.683 14.1955 102.011 14.5675 101.234 14.8315C100.457 15.0955 99.608 15.2275 98.684 15.2275ZM98.669 12.9235C99.236 12.9235 99.755 12.8485 100.232 12.7015C100.706 12.5515 101.117 12.3475 101.462 12.0835C101.807 11.8195 102.074 11.5105 102.26 11.1535C102.446 10.7965 102.542 10.4155 102.542 10.0015C102.542 9.58748 102.449 9.20348 102.26 8.84948C102.074 8.49548 101.807 8.18648 101.462 7.91948C101.117 7.65548 100.706 7.44848 100.232 7.30148C99.758 7.15148 99.236 7.07948 98.669 7.07948C98.102 7.07948 97.583 7.15448 97.106 7.30148C96.632 7.45148 96.218 7.65548 95.867 7.91948C95.516 8.18348 95.249 8.49248 95.069 8.84948C94.886 9.20348 94.796 9.58748 94.796 10.0015C94.796 10.4155 94.886 10.7995 95.069 11.1535C95.252 11.5075 95.519 11.8195 95.867 12.0835C96.218 12.3475 96.629 12.5545 97.106 12.7015C97.58 12.8515 98.102 12.9235 98.669 12.9235Z" fill="#1D1D1B"/>
<path d="M131.783 5.11747L128.174 9.58747C128.09 9.69247 127.928 9.69247 127.844 9.58747L124.235 5.11747C124.154 5.01847 124.034 4.95847 123.905 4.95847H122.345C122.111 4.95847 121.919 5.14747 121.919 5.38447V14.6125C121.919 14.8465 122.108 15.0385 122.345 15.0385H123.872C124.106 15.0385 124.298 14.8495 124.298 14.6125V9.37447C124.298 9.17647 124.544 9.08647 124.673 9.23647L127.412 12.4405C127.493 12.5365 127.61 12.5905 127.736 12.5905H128.294C128.42 12.5905 128.537 12.5365 128.618 12.4405L131.357 9.21847C131.486 9.06847 131.732 9.15847 131.732 9.35647V14.6125C131.732 14.8465 131.921 15.0385 132.158 15.0385H133.685C133.919 15.0385 134.111 14.8495 134.111 14.6125V5.38447C134.111 5.15047 133.922 4.95847 133.685 4.95847H132.125C131.996 4.95847 131.876 5.01547 131.795 5.11747H131.783Z" fill="#1D1D1B"/>
</g>
<path d="M154.773 8.91584V8.36364H157.674V8.91584H156.55V12H155.897V8.91584H154.773ZM158.233 8.36364H159.04L160.119 10.9986H160.162L161.241 8.36364H162.047V12H161.415V9.50178H161.382L160.377 11.9893H159.904L158.899 9.49645H158.866V12H158.233V8.36364Z" fill="#240B0B"/>
<circle cx="158.574" cy="10" r="5" stroke="#240B0B" stroke-width="0.5"/>
<defs>
<clipPath id="clip0_1492_893">
<rect width="116.574" height="10.455" fill="white" transform="translate(32 4.77249)"/>
</clipPath>
</defs>
</svg>
