<svg width="195" height="18" viewBox="0 0 195 18" fill="none" xmlns="http://www.w3.org/2000/svg">
<g clip-path="url(#clip0_1663_1189)">
<path d="M16.865 0.310059H13.9C13.74 0.310059 13.59 0.365059 13.465 0.460059L4.655 7.35506C4.42 7.53506 4.08 7.37006 4.08 7.07506V1.02006C4.08 0.630059 3.765 0.310059 3.37 0.310059H0.71C0.32 0.310059 0 0.625059 0 1.02006V16.4001C0 16.7901 0.315 17.1101 0.71 17.1101H3.375C3.765 17.1101 4.085 16.7951 4.085 16.4001V12.1601C4.085 12.0501 4.135 11.9501 4.22 11.8801L7.22 9.51506C7.37 9.39506 7.59 9.42006 7.715 9.57006L13.715 16.8501C13.85 17.0151 14.05 17.1101 14.26 17.1101H17.37C17.975 17.1101 18.3 16.4051 17.91 15.9451L10.625 7.30506C10.495 7.15006 10.52 6.92006 10.675 6.80006L17.31 1.57506C17.84 1.16006 17.545 0.310059 16.87 0.310059H16.865Z" fill="#CA0E0E"/>
<path d="M23.4399 16.4051V1.02006C23.4399 0.630059 23.7549 0.310059 24.1499 0.310059H26.8149C27.2049 0.310059 27.5249 0.625059 27.5249 1.02006V16.4001C27.5249 16.7901 27.2099 17.1101 26.8149 17.1101H24.1499C23.7599 17.1101 23.4399 16.7951 23.4399 16.4001V16.4051Z" fill="#CA0E0E"/>
<path d="M34.47 16.4051V1.02006C34.47 0.630059 34.785 0.310059 35.18 0.310059H38.07C38.255 0.310059 38.435 0.385059 38.57 0.515059L48.895 10.7001C49.12 10.9201 49.5 10.7601 49.5 10.4501V1.02006C49.5 0.630059 49.815 0.310059 50.21 0.310059H52.755C53.145 0.310059 53.465 0.625059 53.465 1.02006V16.4001C53.465 16.7901 53.15 17.1101 52.755 17.1101H49.82C49.635 17.1101 49.455 17.0351 49.32 16.9051L39.04 6.76006C38.815 6.54006 38.435 6.70006 38.435 7.01006V16.4001C38.435 16.7901 38.12 17.1101 37.725 17.1101H35.18C34.79 17.1101 34.47 16.7951 34.47 16.4001V16.4051Z" fill="#CA0E0E"/>
<path d="M96.2449 3.20506V1.02006C96.2449 0.630059 95.9299 0.310059 95.5349 0.310059H82.5049C82.1149 0.310059 81.7949 0.625059 81.7949 1.02006V16.4001C81.7949 16.7901 82.1099 17.1101 82.5049 17.1101H85.1699C85.5599 17.1101 85.8799 16.7951 85.8799 16.4001V14.5451C85.8799 14.3851 85.9899 14.2451 86.1449 14.2051L94.3099 12.0201C94.6199 11.9351 94.8349 11.6551 94.8349 11.3351V9.27506C94.8349 8.81006 94.3949 8.47006 93.9449 8.59006L86.3299 10.6301C86.1049 10.6901 85.8849 10.5201 85.8849 10.2901V4.27006C85.8849 4.07506 86.0449 3.91506 86.2399 3.91506H95.5449C95.9349 3.91506 96.2549 3.60006 96.2549 3.20506H96.2449Z" fill="#CA0E0E"/>
<path d="M143.465 15.9752L140.44 11.9752C140.315 11.8052 140.365 11.5702 140.54 11.4602C142.235 10.3652 143.315 8.47019 143.315 6.37019C143.315 3.02519 140.605 0.315186 137.26 0.315186H127.945C127.555 0.315186 127.235 0.630186 127.235 1.02519V16.4052C127.235 16.7952 127.55 17.1152 127.945 17.1152H130.415C130.805 17.1152 131.125 16.8002 131.125 16.4052V14.5502C131.125 14.3902 131.235 14.2502 131.39 14.2102L136.15 12.9402C136.29 12.9052 136.44 12.9552 136.525 13.0702L139.36 16.8352C139.495 17.0152 139.705 17.1152 139.925 17.1152H142.9C143.485 17.1152 143.82 16.4452 143.465 15.9802V15.9752ZM131.125 4.07519C131.125 3.88019 131.285 3.72019 131.48 3.72019H136.28C137.885 3.72019 139.19 5.02019 139.19 6.63019C139.19 7.94519 138.305 9.10019 137.035 9.44019L131.57 10.9052C131.345 10.9652 131.125 10.7952 131.125 10.5652V4.08019V4.07519Z" fill="#CA0E0E"/>
<path d="M190.935 17.1101H193.58C194.105 17.1101 194.45 16.5601 194.215 16.0851L186.61 0.705059C186.49 0.465059 186.245 0.310059 185.975 0.310059H183.015C182.745 0.310059 182.5 0.460059 182.38 0.705059L174.735 16.0851C174.5 16.5551 174.845 17.1101 175.37 17.1101H177.915C178.185 17.1101 178.43 16.9601 178.55 16.7151L179.695 14.4151C179.74 14.3251 179.82 14.2551 179.92 14.2301L187.705 12.1451C187.87 12.1001 188.04 12.1801 188.115 12.3301L190.305 16.7151C190.425 16.9551 190.67 17.1051 190.94 17.1051L190.935 17.1101ZM181.925 9.91506L184.105 5.37006C184.235 5.10006 184.62 5.10006 184.745 5.37006L186.405 8.88506C186.5 9.08506 186.39 9.32006 186.175 9.38006L182.335 10.4101C182.045 10.4901 181.795 10.1851 181.925 9.91506Z" fill="#CA0E0E"/>
<path d="M111.14 17.4251C109.555 17.4251 108.115 17.2051 106.82 16.7651C105.525 16.3251 104.405 15.7101 103.46 14.9151C102.515 14.1251 101.785 13.2001 101.265 12.1451C100.745 11.0901 100.485 9.94513 100.485 8.71513C100.485 7.48513 100.745 6.34013 101.265 5.28513C101.785 4.23013 102.52 3.30513 103.475 2.51513C104.425 1.72513 105.545 1.10513 106.835 0.665127C108.125 0.225127 109.55 0.00512695 111.12 0.00512695C112.69 0.00512695 114.095 0.225127 115.39 0.665127C116.685 1.10513 117.805 1.72013 118.75 2.51513C119.695 3.30513 120.425 4.23013 120.945 5.28513C121.465 6.34013 121.725 7.48513 121.725 8.71513C121.725 9.94513 121.465 11.0901 120.945 12.1451C120.425 13.2001 119.695 14.1251 118.75 14.9151C117.805 15.7051 116.685 16.3251 115.39 16.7651C114.095 17.2051 112.68 17.4251 111.14 17.4251ZM111.115 13.5851C112.06 13.5851 112.925 13.4601 113.72 13.2151C114.51 12.9651 115.195 12.6251 115.77 12.1851C116.345 11.7451 116.79 11.2301 117.1 10.6351C117.41 10.0401 117.57 9.40513 117.57 8.71513C117.57 8.02513 117.415 7.38513 117.1 6.79513C116.79 6.20513 116.345 5.69013 115.77 5.24513C115.195 4.80513 114.51 4.46013 113.72 4.21513C112.93 3.96513 112.06 3.84513 111.115 3.84513C110.17 3.84513 109.305 3.97013 108.51 4.21513C107.72 4.46513 107.03 4.80513 106.445 5.24513C105.86 5.68513 105.415 6.20013 105.115 6.79513C104.81 7.38513 104.66 8.02513 104.66 8.71513C104.66 9.40513 104.81 10.0451 105.115 10.6351C105.42 11.2251 105.865 11.7451 106.445 12.1851C107.03 12.6251 107.715 12.9701 108.51 13.2151C109.3 13.4651 110.17 13.5851 111.115 13.5851Z" fill="#CA0E0E"/>
<path d="M166.305 0.575059L160.29 8.02506C160.15 8.20006 159.88 8.20006 159.74 8.02506L153.725 0.575059C153.59 0.410059 153.39 0.310059 153.175 0.310059H150.575C150.185 0.310059 149.865 0.625059 149.865 1.02006V16.4001C149.865 16.7901 150.18 17.1101 150.575 17.1101H153.12C153.51 17.1101 153.83 16.7951 153.83 16.4001V7.67006C153.83 7.34006 154.24 7.19006 154.455 7.44006L159.02 12.7801C159.155 12.9401 159.35 13.0301 159.56 13.0301H160.49C160.7 13.0301 160.895 12.9401 161.03 12.7801L165.595 7.41006C165.81 7.16006 166.22 7.31006 166.22 7.64006V16.4001C166.22 16.7901 166.535 17.1101 166.93 17.1101H169.475C169.865 17.1101 170.185 16.7951 170.185 16.4001V1.02006C170.185 0.630059 169.87 0.310059 169.475 0.310059H166.875C166.66 0.310059 166.46 0.405059 166.325 0.575059H166.305Z" fill="#CA0E0E"/>
</g>
<defs>
<clipPath id="clip0_1663_1189">
<rect width="194.29" height="17.425" fill="white"/>
</clipPath>
</defs>
</svg>
