<svg width="298" height="170" viewBox="0 0 298 170" fill="none" xmlns="http://www.w3.org/2000/svg">
<g clip-path="url(#clip0_1667_1942)">
<path d="M89.1731 46.6795C89.1731 51.0151 88.5203 55.2968 87.2328 59.4048C87.2209 59.4348 87.2149 59.4707 87.2029 59.5006L64.8123 130.062C64.6267 130.541 64.5369 131.05 64.5369 131.553C64.5369 132.278 64.7225 133.002 65.0998 133.655C66.9622 136.877 67.9502 140.553 67.9502 144.284C67.9502 156.015 58.4107 165.555 46.6795 165.555C34.9482 165.555 25.4087 156.015 25.4087 144.284C25.4087 140.553 26.3968 136.877 28.2592 133.655C28.6365 133.008 28.8221 132.284 28.8221 131.559C28.8221 131.074 28.7383 130.589 28.5706 130.128L6.16804 59.5186C6.15606 59.4767 6.14409 59.4407 6.13211 59.3988C4.84461 55.2968 4.19187 51.0151 4.19187 46.6735C4.19187 23.2529 23.2529 4.19187 46.6795 4.19187C70.1061 4.19187 89.1671 23.2529 89.1671 46.6795M93.365 46.6795C93.365 20.8995 72.4595 0 46.6795 0C20.8995 0 0 20.8995 0 46.6795C0 51.548 0.748549 56.2429 2.13187 60.6564L24.6302 131.553H24.6362C22.4684 135.302 21.2228 139.643 21.2228 144.284C21.2228 158.345 32.6247 169.747 46.6855 169.747C60.7462 169.747 72.1481 158.345 72.1481 144.284C72.1481 139.643 70.9025 135.302 68.7347 131.553H68.7407L91.2391 60.6564C92.6224 56.2429 93.3709 51.548 93.3709 46.6795H93.365Z" fill="#CA0E0E"/>
<path d="M34.8704 36.619H31.3193C31.1276 36.619 30.948 36.6849 30.7983 36.7986L20.2467 45.0506C19.9653 45.2662 19.5581 45.0686 19.5581 44.7153V37.4634C19.5581 36.9963 19.1808 36.613 18.7077 36.613H15.5159C15.0488 36.613 14.6656 36.9903 14.6656 37.4634V55.8836C14.6656 56.3507 15.0428 56.734 15.5159 56.734H18.7077C19.1748 56.734 19.5581 56.3567 19.5581 55.8836V50.8055C19.5581 50.6737 19.618 50.554 19.7198 50.4701L23.3128 47.6376C23.4924 47.4939 23.7559 47.5239 23.9056 47.7035L31.0917 56.4226C31.2534 56.6202 31.4929 56.734 31.7444 56.734H35.4692C36.1938 56.734 36.5831 55.8896 36.116 55.3387L27.3909 44.9908C27.2352 44.8051 27.2651 44.5297 27.4508 44.3859L35.3974 38.1281C36.0321 37.631 35.6788 36.613 34.8704 36.613V36.619Z" fill="#CA0E0E"/>
<path d="M42.7451 55.8956V37.4753C42.7451 37.0082 43.1224 36.625 43.5955 36.625H46.7873C47.2544 36.625 47.6376 37.0022 47.6376 37.4753V55.8956C47.6376 56.3627 47.2604 56.746 46.7873 56.746H43.5955C43.1284 56.746 42.7451 56.3687 42.7451 55.8956Z" fill="#CA0E0E"/>
<path d="M55.9555 55.8956V37.4753C55.9555 37.0082 56.3328 36.625 56.8059 36.625H60.2671C60.4887 36.625 60.7043 36.7148 60.866 36.8705L73.232 49.0688C73.5015 49.3323 73.9566 49.1407 73.9566 48.7694V37.4813C73.9566 37.0142 74.3339 36.631 74.8069 36.631H77.855C78.3221 36.631 78.7054 37.0082 78.7054 37.4813V55.9016C78.7054 56.3687 78.3281 56.7519 77.855 56.7519H74.3399C74.1183 56.7519 73.9027 56.6621 73.741 56.5064L61.4289 44.356C61.1594 44.0925 60.7043 44.2841 60.7043 44.6554V55.9016C60.7043 56.3687 60.327 56.7519 59.8539 56.7519H56.8059C56.3388 56.7519 55.9555 56.3747 55.9555 55.9016V55.8956Z" fill="#CA0E0E"/>
<path d="M173.993 4.19187C178.328 4.19187 182.61 4.84461 186.718 6.13211C186.748 6.14409 186.784 6.15007 186.814 6.16205L257.375 28.5526C257.854 28.7383 258.363 28.8281 258.866 28.8281C259.591 28.8281 260.315 28.6425 260.968 28.2652C264.19 26.4028 267.867 25.4147 271.597 25.4147C283.329 25.4147 292.868 34.9542 292.868 46.6855C292.868 58.4167 283.329 67.9562 271.597 67.9562C267.867 67.9562 264.19 66.9681 260.968 65.1058C260.321 64.7285 259.597 64.5428 258.872 64.5428C258.387 64.5428 257.902 64.6267 257.441 64.7944L186.832 87.2029C186.79 87.2149 186.754 87.2269 186.712 87.2388C182.61 88.5263 178.328 89.1791 173.987 89.1791C150.56 89.1791 131.499 70.118 131.499 46.6915C131.499 23.2649 150.566 4.19187 173.993 4.19187ZM173.993 0C148.213 0 127.313 20.8995 127.313 46.6795C127.313 72.4595 148.213 93.359 173.993 93.359C178.861 93.359 183.556 92.6104 187.97 91.2271L258.866 68.7287C262.615 70.8905 266.956 72.1361 271.597 72.1361C285.658 72.1361 297.06 60.7342 297.06 46.6735C297.06 32.6128 285.658 21.2109 271.597 21.2109C266.956 21.2109 262.615 22.4565 258.866 24.6243L187.97 2.13187C183.556 0.748549 178.861 0 173.993 0Z" fill="#CA0E0E"/>
<path d="M162.13 40.0803V37.4694C162.13 37.0023 161.752 36.619 161.279 36.619H145.674C145.206 36.619 144.823 36.9963 144.823 37.4694V55.8897C144.823 56.3567 145.2 56.74 145.674 56.74H148.865C149.332 56.74 149.716 56.3627 149.716 55.8897V53.668C149.716 53.4763 149.847 53.3087 150.033 53.2608L159.812 50.6438C160.183 50.542 160.441 50.2067 160.441 49.8234V47.3562C160.441 46.7993 159.914 46.3921 159.375 46.5358L150.255 48.9791C149.985 49.0509 149.722 48.8473 149.722 48.5718V41.3618C149.722 41.1283 149.913 40.9366 150.147 40.9366H161.291C161.758 40.9366 162.142 40.5594 162.142 40.0863L162.13 40.0803Z" fill="#CA0E0E"/>
<path d="M218.678 55.3806L215.055 50.5899C214.905 50.3863 214.965 50.1049 215.175 49.9731C217.205 48.6617 218.498 46.3921 218.498 43.8769C218.498 39.8707 215.253 36.625 211.246 36.625H200.09C199.623 36.625 199.24 37.0023 199.24 37.4754V55.8956C199.24 56.3627 199.617 56.746 200.09 56.746H203.048C203.515 56.746 203.899 56.3687 203.899 55.8956V53.6739C203.899 53.4823 204.03 53.3146 204.216 53.2667L209.917 51.7457C210.085 51.7038 210.264 51.7636 210.366 51.9014L213.762 56.4106C213.923 56.6262 214.175 56.746 214.438 56.746H218.001C218.702 56.746 219.103 55.9435 218.678 55.3866V55.3806ZM203.899 41.1283C203.899 40.8947 204.09 40.7031 204.324 40.7031H210.073C211.995 40.7031 213.558 42.2601 213.558 44.1883C213.558 45.7633 212.498 47.1466 210.977 47.5538L204.432 49.3084C204.162 49.3803 203.899 49.1767 203.899 48.9012V41.1343V41.1283Z" fill="#CA0E0E"/>
<path d="M275.532 56.74H278.7C279.328 56.74 279.742 56.0813 279.46 55.5124L270.352 37.0921C270.208 36.8047 269.915 36.619 269.591 36.619H266.046C265.723 36.619 265.429 36.7987 265.286 37.0921L256.129 55.5124C255.848 56.0753 256.261 56.74 256.89 56.74H259.938C260.261 56.74 260.555 56.5604 260.699 56.2669L262.07 53.5123C262.124 53.4045 262.22 53.3206 262.339 53.2907L271.663 50.7935C271.861 50.7396 272.064 50.8355 272.154 51.0151L274.777 56.2669C274.921 56.5544 275.214 56.734 275.538 56.734L275.532 56.74ZM264.741 48.1167L267.352 42.6733C267.507 42.3499 267.968 42.3499 268.118 42.6733L270.106 46.8831C270.22 47.1227 270.088 47.4041 269.831 47.476L265.232 48.7096C264.884 48.8054 264.585 48.4401 264.741 48.1167Z" fill="#CA0E0E"/>
<path d="M179.963 57.1173C178.065 57.1173 176.34 56.8538 174.789 56.3268C173.238 55.7998 171.897 55.0632 170.765 54.1111C169.633 53.1649 168.759 52.0571 168.136 50.7935C167.513 49.53 167.202 48.1586 167.202 46.6855C167.202 45.2124 167.513 43.841 168.136 42.5775C168.759 41.3139 169.639 40.2061 170.783 39.2599C171.921 38.3137 173.262 37.5712 174.807 37.0442C176.352 36.5172 178.059 36.2537 179.939 36.2537C181.819 36.2537 183.502 36.5172 185.053 37.0442C186.604 37.5712 187.946 38.3077 189.077 39.2599C190.209 40.2061 191.084 41.3139 191.706 42.5775C192.329 43.841 192.64 45.2124 192.64 46.6855C192.64 48.1586 192.329 49.53 191.706 50.7935C191.084 52.0571 190.209 53.1649 189.077 54.1111C187.946 55.0573 186.604 55.7998 185.053 56.3268C183.502 56.8538 181.807 57.1173 179.963 57.1173ZM179.933 52.5182C181.065 52.5182 182.101 52.3685 183.053 52.075C183.999 51.7756 184.82 51.3684 185.508 50.8414C186.197 50.3145 186.73 49.6977 187.101 48.985C187.473 48.2724 187.664 47.5119 187.664 46.6855C187.664 45.8591 187.479 45.0926 187.101 44.386C186.73 43.6793 186.197 43.0625 185.508 42.5296C184.82 42.0026 183.999 41.5894 183.053 41.2959C182.107 40.9965 181.065 40.8528 179.933 40.8528C178.801 40.8528 177.765 41.0025 176.813 41.2959C175.867 41.5954 175.041 42.0026 174.34 42.5296C173.639 43.0565 173.106 43.6733 172.747 44.386C172.382 45.0926 172.202 45.8591 172.202 46.6855C172.202 47.5119 172.382 48.2784 172.747 48.985C173.112 49.6917 173.645 50.3145 174.34 50.8414C175.041 51.3684 175.861 51.7816 176.813 52.075C177.759 52.3745 178.801 52.5182 179.933 52.5182Z" fill="#CA0E0E"/>
<path d="M246.033 36.9364L238.829 45.8591C238.661 46.0687 238.338 46.0687 238.17 45.8591L230.966 36.9364C230.804 36.7388 230.565 36.619 230.307 36.619H227.193C226.726 36.619 226.343 36.9963 226.343 37.4694V55.8897C226.343 56.3567 226.72 56.74 227.193 56.74H230.242C230.709 56.74 231.092 56.3627 231.092 55.8897V45.4339C231.092 45.0387 231.583 44.859 231.84 45.1585L237.308 51.5541C237.47 51.7457 237.703 51.8535 237.955 51.8535H239.068C239.32 51.8535 239.554 51.7457 239.715 51.5541L245.183 45.1225C245.44 44.8231 245.931 45.0028 245.931 45.398V55.8897C245.931 56.3567 246.308 56.74 246.782 56.74H249.83C250.297 56.74 250.68 56.3627 250.68 55.8897V37.4694C250.68 37.0023 250.303 36.619 249.83 36.619H246.716C246.458 36.619 246.219 36.7328 246.057 36.9364H246.033Z" fill="#CA0E0E"/>
</g>
<defs>
<clipPath id="clip0_1667_1942">
<rect width="297.06" height="169.747" fill="white"/>
</clipPath>
</defs>
</svg>
