<svg width="83" height="25" viewBox="0 0 83 25" fill="none" xmlns="http://www.w3.org/2000/svg">
<g clip-path="url(#clip0_279_113)">
<path d="M78.0297 6.94649C78.0297 6.65819 78.0828 6.38791 78.1889 6.13565C78.295 5.88338 78.439 5.66336 78.6209 5.47559C78.8029 5.28781 79.016 5.13987 79.2605 5.03175C79.505 4.92364 79.7674 4.86959 80.0479 4.86959C80.3321 4.86959 80.5984 4.92364 80.8466 5.03175C81.0948 5.13987 81.3109 5.28781 81.4947 5.47559C81.6785 5.66336 81.8235 5.88338 81.9296 6.13565C82.0357 6.38791 82.0888 6.65819 82.0888 6.94649C82.0888 7.2348 82.0357 7.50508 81.9296 7.75734C81.8235 8.00961 81.6785 8.22962 81.4947 8.4174C81.3109 8.60518 81.0948 8.75312 80.8466 8.86123C80.5984 8.96934 80.3321 9.0234 80.0479 9.0234C79.7674 9.0234 79.505 8.96934 79.2605 8.86123C79.016 8.75312 78.8029 8.60518 78.6209 8.4174C78.439 8.22962 78.295 8.00961 78.1889 7.75734C78.0828 7.50508 78.0297 7.2348 78.0297 6.94649ZM78.4447 6.94649C78.4447 7.18548 78.4855 7.40739 78.5669 7.61224C78.6484 7.81709 78.7612 7.99538 78.9052 8.14712C79.0492 8.29885 79.2188 8.41835 79.414 8.5056C79.6092 8.59285 79.8205 8.63647 80.0479 8.63647C80.2791 8.63647 80.4932 8.59285 80.6903 8.5056C80.8873 8.41835 81.0588 8.29885 81.2047 8.14712C81.3507 7.99538 81.4653 7.81709 81.5487 7.61224C81.6321 7.40739 81.6738 7.18548 81.6738 6.94649C81.6738 6.7075 81.6321 6.48559 81.5487 6.28074C81.4653 6.0759 81.3507 5.89761 81.2047 5.74587C81.0588 5.59413 80.8873 5.47464 80.6903 5.38739C80.4932 5.30014 80.2791 5.25652 80.0479 5.25652C79.8205 5.25652 79.6092 5.30014 79.414 5.38739C79.2188 5.47464 79.0492 5.59413 78.9052 5.74587C78.7612 5.89761 78.6484 6.0759 78.5669 6.28074C78.4855 6.48559 78.4447 6.7075 78.4447 6.94649ZM79.3543 6.05314C79.3543 5.92795 79.4168 5.86536 79.5419 5.86536H80.1843C80.389 5.86536 80.5519 5.92416 80.6732 6.04176C80.7945 6.15935 80.8551 6.31868 80.8551 6.51973C80.8551 6.60319 80.8428 6.67716 80.8182 6.74165C80.7935 6.80614 80.7623 6.86209 80.7244 6.90951C80.6865 6.95692 80.6448 6.99581 80.5993 7.02615C80.5538 7.0565 80.5083 7.07737 80.4629 7.08875V7.10013C80.4667 7.10392 80.4723 7.11151 80.4799 7.12289C80.4875 7.13047 80.4951 7.1428 80.5027 7.15987C80.5102 7.17694 80.5216 7.19686 80.5368 7.21962L80.8324 7.79433C80.8665 7.85881 80.8741 7.91097 80.8551 7.95081C80.8362 7.99064 80.7945 8.01055 80.7301 8.01055H80.6618C80.5557 8.01055 80.4818 7.96503 80.4401 7.87399L80.1104 7.17979H79.7579V7.82847C79.7579 7.94986 79.6992 8.01055 79.5817 8.01055H79.5305C79.413 8.01055 79.3543 7.94986 79.3543 7.82847V6.05314ZM80.099 6.8839C80.2089 6.8839 80.2942 6.85166 80.3549 6.78717C80.4155 6.72268 80.4458 6.63353 80.4458 6.51973C80.4458 6.40972 80.4155 6.32437 80.3549 6.26367C80.2942 6.20298 80.2108 6.17263 80.1047 6.17263H79.7579V6.8839H80.099ZM63.5278 8.24442C64.1705 8.24442 64.7155 8.3264 65.1629 8.49037C65.6102 8.65435 65.9599 8.8057 66.212 8.94445C66.4262 9.05797 66.5522 9.20933 66.59 9.39852C66.6278 9.58772 66.5963 9.78953 66.4955 10.004L66.3065 10.3445C66.1931 10.5716 66.0481 10.704 65.8717 10.7418C65.6953 10.7797 65.4874 10.7481 65.2479 10.6472C65.0337 10.5463 64.7754 10.4423 64.4729 10.3351C64.1705 10.2278 63.8177 10.1742 63.4144 10.1742C62.9985 10.1742 62.6772 10.2562 62.4504 10.4202C62.2235 10.5842 62.1101 10.8175 62.1101 11.1202C62.1101 11.3851 62.2267 11.5995 62.4598 11.7635C62.693 11.9275 62.9891 12.0725 63.3482 12.1987C63.7074 12.3248 64.0917 12.4604 64.5013 12.6054C64.9108 12.7505 65.2952 12.9365 65.6543 13.1636C66.0135 13.3906 66.3096 13.6807 66.5428 14.0339C66.7759 14.387 66.8925 14.8348 66.8925 15.3772C66.8925 15.806 66.8074 16.2002 66.6373 16.5597C66.4671 16.9191 66.2214 17.2313 65.9001 17.4962C65.5787 17.7611 65.1912 17.9692 64.7376 18.1205C64.2839 18.2719 63.7799 18.3476 63.2254 18.3476C62.4441 18.3476 61.7856 18.2341 61.2501 18.007C60.7145 17.78 60.3018 17.5656 60.012 17.3637C59.7977 17.2376 59.678 17.08 59.6528 16.8908C59.6276 16.7016 59.6843 16.4997 59.8229 16.2853L60.0498 15.9448C60.1884 15.743 60.3428 15.6294 60.5129 15.6042C60.683 15.579 60.8878 15.6294 61.1272 15.7556C61.354 15.8817 61.647 16.0236 62.0062 16.1813C62.3653 16.3389 62.7906 16.4178 63.2821 16.4178C63.6979 16.4178 64.0256 16.3295 64.265 16.1529C64.5044 15.9763 64.6242 15.7367 64.6242 15.4339C64.6242 15.1691 64.5076 14.9578 64.2745 14.8001C64.0413 14.6425 63.7452 14.4974 63.386 14.365C63.0269 14.2325 62.6426 14.0906 62.233 13.9393C61.8234 13.7879 61.4391 13.5987 61.0799 13.3717C60.7208 13.1446 60.4247 12.8545 60.1915 12.5014C59.9584 12.1482 59.8418 11.6941 59.8418 11.1391C59.8418 10.6725 59.9395 10.2562 60.1348 9.89044C60.3302 9.52465 60.5948 9.22194 60.9287 8.98229C61.2627 8.74264 61.6533 8.55975 62.1007 8.43362C62.548 8.30748 63.0237 8.24442 63.5278 8.24442ZM35.4304 8.24442C36.0731 8.24442 36.6181 8.3264 37.0654 8.49037C37.5128 8.65435 37.8625 8.8057 38.1145 8.94445C38.3288 9.05797 38.4548 9.20933 38.4926 9.39852C38.5304 9.58772 38.4989 9.78953 38.3981 10.004L38.209 10.3445C38.0956 10.5716 37.9507 10.704 37.7743 10.7418C37.5979 10.7797 37.3899 10.7481 37.1505 10.6472C36.9363 10.5463 36.6779 10.4423 36.3755 10.3351C36.0731 10.2278 35.7202 10.1742 35.317 10.1742C34.9011 10.1742 34.5798 10.2562 34.3529 10.4202C34.1261 10.5842 34.0127 10.8175 34.0127 11.1202C34.0127 11.3851 34.1293 11.5995 34.3624 11.7635C34.5955 11.9275 34.8917 12.0725 35.2508 12.1987C35.61 12.3248 35.9943 12.4604 36.4039 12.6054C36.8134 12.7505 37.1978 12.9365 37.5569 13.1636C37.9161 13.3906 38.2122 13.6807 38.4453 14.0339C38.6785 14.387 38.795 14.8348 38.795 15.3772C38.795 15.806 38.71 16.2002 38.5398 16.5597C38.3697 16.9191 38.124 17.2313 37.8026 17.4962C37.4813 17.7611 37.0938 17.9692 36.6401 18.1205C36.1865 18.2719 35.6824 18.3476 35.1279 18.3476C34.3466 18.3476 33.6882 18.2341 33.1526 18.007C32.6171 17.78 32.2044 17.5656 31.9145 17.3637C31.7003 17.2376 31.5806 17.08 31.5554 16.8908C31.5302 16.7016 31.5869 16.4997 31.7255 16.2853L31.9523 15.9448C32.0909 15.743 32.2453 15.6294 32.4154 15.6042C32.5856 15.579 32.7903 15.6294 33.0298 15.7556C33.2566 15.8817 33.5496 16.0236 33.9087 16.1813C34.2679 16.3389 34.6932 16.4178 35.1846 16.4178C35.6005 16.4178 35.9281 16.3295 36.1676 16.1529C36.407 15.9763 36.5267 15.7367 36.5267 15.4339C36.5267 15.1691 36.4102 14.9578 36.177 14.8001C35.9439 14.6425 35.6478 14.4974 35.2886 14.365C34.9295 14.2325 34.5451 14.0906 34.1356 13.9393C33.726 13.7879 33.3417 13.5987 32.9825 13.3717C32.6234 13.1446 32.3272 12.8545 32.0941 12.5014C31.861 12.1482 31.7444 11.6941 31.7444 11.1391C31.7444 10.6725 31.8421 10.2562 32.0374 9.89044C32.2327 9.52465 32.4973 9.22194 32.8313 8.98229C33.1652 8.74264 33.5559 8.55975 34.0032 8.43362C34.4506 8.30748 34.9263 8.24442 35.4304 8.24442ZM69.8969 4.6875C70.4262 4.6875 70.6909 4.95237 70.6909 5.48213V9.3796C70.6909 9.50574 70.6877 9.6161 70.6814 9.7107C70.6751 9.8053 70.6656 9.89044 70.653 9.96612C70.6404 10.0544 70.6341 10.1301 70.6341 10.1932H70.672C70.7854 9.96612 70.946 9.73593 71.154 9.50258C71.3619 9.26924 71.6076 9.05797 71.8912 8.86877C72.1747 8.67957 72.496 8.52821 72.8552 8.4147C73.2143 8.30118 73.6018 8.24442 74.0177 8.24442C75.0888 8.24442 75.9174 8.53452 76.5034 9.11473C77.0893 9.69494 77.3823 10.6283 77.3823 11.9149V17.3259C77.3823 17.8557 77.1177 18.1205 76.5884 18.1205H75.7756C75.2463 18.1205 74.9817 17.8557 74.9817 17.3259V12.4068C74.9817 11.8139 74.8809 11.3378 74.6793 10.9783C74.4776 10.6188 74.0744 10.4391 73.4695 10.4391C73.0537 10.4391 72.6725 10.5211 72.3259 10.6851C71.9794 10.849 71.6864 11.0729 71.447 11.3567C71.2075 11.6405 71.0216 11.9779 70.8893 12.3689C70.757 12.7599 70.6909 13.1825 70.6909 13.6366V17.3259C70.6909 17.8557 70.4262 18.1205 69.8969 18.1205H69.0841C68.5549 18.1205 68.2902 17.8557 68.2902 17.3259V5.48213C68.2902 4.95237 68.5549 4.6875 69.0841 4.6875L69.8969 4.6875ZM57.3379 8.47146C57.8546 8.47146 58.1129 8.73633 58.1129 9.26609V17.3259C58.1129 17.8557 57.8546 18.1205 57.3379 18.1205H56.5062C55.9895 18.1205 55.7312 17.8557 55.7312 17.3259V9.26609C55.7312 8.73633 55.9895 8.47146 56.5062 8.47146H57.3379ZM41.2994 8.47146C41.7782 8.47146 42.0618 8.7048 42.15 9.17149L43.7 14.8096C43.7252 14.9483 43.7472 15.0745 43.7662 15.188C43.7851 15.3015 43.8071 15.4087 43.8323 15.5096C43.8575 15.6231 43.8764 15.7303 43.889 15.8312H43.9268C43.9394 15.7303 43.9583 15.6231 43.9835 15.5096C44.0087 15.4087 44.0308 15.3015 44.0497 15.188C44.0686 15.0745 44.0969 14.9483 44.1347 14.8096L45.7604 9.17149C45.8486 8.71741 46.1384 8.49037 46.6299 8.49037H47.3482C47.8144 8.49037 48.1043 8.71741 48.2177 9.17149L49.8244 14.8096C49.8622 14.9483 49.8905 15.0745 49.9094 15.188C49.9284 15.3015 49.9504 15.4087 49.9756 15.5096C50.0008 15.6231 50.0197 15.7303 50.0323 15.8312H50.0701C50.0827 15.7303 50.1016 15.6231 50.1268 15.5096C50.152 15.4087 50.1741 15.3015 50.193 15.188C50.2119 15.0745 50.2402 14.9483 50.278 14.8096L51.8091 9.17149C51.9226 8.7048 52.2124 8.47146 52.6787 8.47146H53.5482C53.838 8.47146 54.0396 8.55344 54.153 8.71741C54.2665 8.88138 54.2854 9.09581 54.2098 9.36068L51.7335 17.4583C51.6075 17.8998 51.3114 18.1205 50.8451 18.1205H49.5787C49.0998 18.1205 48.8037 17.8935 48.6902 17.4394L47.2348 12.6149C47.1969 12.4888 47.1654 12.3626 47.1402 12.2365C47.115 12.1104 47.0898 11.9968 47.0646 11.8959C47.0394 11.7824 47.0205 11.6752 47.0079 11.5743H46.9701C46.9449 11.6752 46.9197 11.7824 46.8945 11.8959C46.8693 11.9968 46.8441 12.1104 46.8189 12.2365C46.7937 12.3626 46.7622 12.4888 46.7244 12.6149L45.2689 17.4394C45.1555 17.8935 44.8656 18.1205 44.3994 18.1205H43.0951C42.6415 18.1205 42.3516 17.8998 42.2256 17.4583L39.7305 9.36068C39.6549 9.09581 39.6769 8.88138 39.7966 8.71741C39.9164 8.55344 40.1148 8.47146 40.3921 8.47146H41.2994Z" fill="#1D1D1B"/>
<path fill-rule="evenodd" clip-rule="evenodd" d="M7.10657 23.7596C12.1262 26.1591 18.3212 24.9716 22.0637 20.5144C26.4997 15.2316 25.8107 7.35588 20.5248 2.92358L17.0108 7.10849C21.1404 10.5712 21.6787 16.7241 18.2131 20.8513C15.4498 24.1422 10.9001 25.2411 7.10657 23.7596Z" fill="url(#paint0_linear_279_113)"/>
<path fill-rule="evenodd" clip-rule="evenodd" d="M7.10657 23.7595C12.1262 26.159 18.3212 24.9715 22.0637 20.5144C22.5221 19.9685 22.9256 19.3949 23.2751 18.8004C23.8661 15.1294 22.5664 11.2494 19.5089 8.68574C18.7321 8.03437 17.8912 7.50962 17.0114 7.10889C21.1405 10.5717 21.6785 16.7242 18.2131 20.8513C15.4498 24.1422 10.9001 25.241 7.10657 23.7595Z" fill="url(#paint1_linear_279_113)"/>
<path fill-rule="evenodd" clip-rule="evenodd" d="M17.8812 1.21601C12.8615 -1.18351 6.66659 0.00398213 2.92401 4.4611C-1.51197 9.74398 -0.822966 17.6197 4.46291 22.052L7.97692 17.8671C3.84732 14.4043 3.30905 8.25147 6.77464 4.1242C9.53798 0.833299 14.0877 -0.265506 17.8812 1.21601Z" fill="url(#paint2_linear_279_113)"/>
<path fill-rule="evenodd" clip-rule="evenodd" d="M17.8812 1.21601C12.8615 -1.18351 6.6666 0.00398213 2.92402 4.4611C2.46564 5.00698 2.06218 5.58057 1.71269 6.17513C1.12164 9.84603 2.4214 13.7261 5.47882 16.2897C6.25562 16.9411 7.09652 17.4659 7.97637 17.8666C3.8473 14.4038 3.30921 8.25128 6.77465 4.1242C9.53799 0.833299 14.0877 -0.265506 17.8812 1.21601Z" fill="url(#paint3_linear_279_113)"/>
</g>
<defs>
<linearGradient id="paint0_linear_279_113" x1="8359.6" y1="2317.51" x2="5891.08" y2="819.406" gradientUnits="userSpaceOnUse">
<stop stop-color="#EF2131"/>
<stop offset="1" stop-color="#FECF2C"/>
</linearGradient>
<linearGradient id="paint1_linear_279_113" x1="5551.17" y1="7.109" x2="674.702" y2="2578.92" gradientUnits="userSpaceOnUse">
<stop stop-color="#FBC52C"/>
<stop offset="0.263921" stop-color="#F87130"/>
<stop offset="0.560797" stop-color="#EF52E2"/>
<stop offset="1" stop-color="#661EEC"/>
</linearGradient>
<linearGradient id="paint2_linear_279_113" x1="2125.87" y1="1591.95" x2="4494.96" y2="3059.82" gradientUnits="userSpaceOnUse">
<stop stop-color="#78F6D8"/>
<stop offset="0.265705" stop-color="#77D1F6"/>
<stop offset="0.554471" stop-color="#70A4F3"/>
<stop offset="1" stop-color="#661EEC"/>
</linearGradient>
<linearGradient id="paint3_linear_279_113" x1="4001.91" y1="3144.52" x2="8840.33" y2="581.502" gradientUnits="userSpaceOnUse">
<stop stop-color="#536EED"/>
<stop offset="0.246658" stop-color="#54C3EC"/>
<stop offset="0.5642" stop-color="#64D769"/>
<stop offset="1" stop-color="#FECF2C"/>
</linearGradient>
<clipPath id="clip0_279_113">
<rect width="82.5" height="25" fill="white"/>
</clipPath>
</defs>
</svg>
