<svg width="46" height="15" viewBox="0 0 46 15" fill="none" xmlns="http://www.w3.org/2000/svg">
<path d="M22.563 0.264376L19.5197 14.4966H15.8367L18.8846 0.264376H22.563ZM38.0563 9.45369L39.9936 4.10845L41.1103 9.45369H38.0563ZM42.1633 14.4966H45.5697L42.5978 0.264376H39.4542C39.4496 0.264376 39.4435 0.264376 39.439 0.264376C38.7416 0.264376 38.1429 0.691326 37.8907 1.29756L37.8862 1.3082L32.3632 14.4966H36.2285L36.9973 12.3694H41.7211L42.1633 14.4966ZM32.5531 9.85025C32.5683 6.09278 27.3583 5.88614 27.3947 4.20721C27.4069 3.69669 27.8916 3.15275 28.9551 3.01448C29.1527 2.99473 29.3806 2.98258 29.6115 2.98258C30.6918 2.98258 31.7159 3.22872 32.6275 3.66934L32.5865 3.65111L33.2322 0.63207C32.2097 0.235507 31.0261 0.00455819 29.7893 0H29.7878C26.1473 0 23.5871 1.93723 23.5643 4.70709C23.5415 6.75524 25.3922 7.8963 26.7885 8.58003C28.2243 9.27744 28.706 9.72566 28.6984 10.3471C28.6892 11.3043 27.5558 11.7237 26.4952 11.7404C26.4466 11.7419 26.3874 11.7419 26.3296 11.7419C25.0062 11.7419 23.7603 11.4092 22.6724 10.8211L22.7135 10.8409L22.0464 13.9587C23.2407 14.4373 24.6249 14.7138 26.0744 14.7138C26.0972 14.7138 26.1199 14.7138 26.1427 14.7138H26.1397C30.0081 14.7138 32.5379 12.804 32.5516 9.84569L32.5531 9.85025ZM17.3014 0.264376L11.3362 14.4966H7.44352L4.50805 3.13603C4.45183 2.58297 4.11301 2.12108 3.64199 1.89013L3.63288 1.88557C2.58753 1.37202 1.37202 0.954181 0.10028 0.691325L0 0.674612L0.0881251 0.262856H6.35412C7.20802 0.262856 7.91758 0.887328 8.04976 1.70324L8.05128 1.71236L9.60259 9.94901L13.4345 0.261336L17.3014 0.264376Z" fill="black"/>
</svg>
